<?xml version="1.0" encoding="UTF-8"?>
<svg id="Layer_1" data-name="Layer 1" xmlns="http://www.w3.org/2000/svg" width="50mm" height="356mm" viewBox="0 0 141.73 1009.13">
  <rect width="141.73" height="1009.13" style="fill: #c6a9aa;"/>
  <rect x="34.9" y="840.46" width="71.94" height="72.63" style="fill: #251320; stroke: #251320; stroke-miterlimit: 10;"/>
  <rect x="34.9" y="917.09" width="71.94" height="72.63" style="fill: #251320; stroke: #251320; stroke-miterlimit: 10;"/>
  <polygon points="34.9 836.6 70.87 784.2 106.84 836.6 34.9 836.6" style="fill: #251320; stroke: #251320; stroke-miterlimit: 10;"/>
  <rect x="52.84" y="939.54" width="36.05" height="51.19" style="fill: #c6a9aa;"/>
  <rect x="59.12" y="858.56" width="25.49" height="25.49" transform="translate(637.16 204.38) rotate(45)" style="fill: #c6a9aa;"/>
  <path d="M72.49,768.1c0-1.26,0-2.51,0-3.77l-.02-10.71c-.01-5.65-.02-11.31-.03-16.96-.01-7.48-.03-14.95-.04-22.43-.02-9.02-.03-18.04-.05-27.05-.02-10.4-.04-20.8-.06-31.2l-.06-34.2c-.02-12.25-.04-24.5-.07-36.75-.02-12.81-.05-25.63-.07-38.44l-.07-39.26-.07-39.69c-.02-12.96-.05-25.91-.07-38.87l-.07-37.66c-.02-11.86-.04-23.72-.06-35.58l-.06-32.74-.05-29.14c-.01-8.24-.03-16.48-.04-24.71-.01-6.58-.02-13.16-.04-19.75l-.03-13.78v-7.21c-.01-.3-.01-.59-.01-.89,0-.8-1.25-.81-1.25,0,0,1.26,0,2.51,0,3.77l.02,10.71c.01,5.65.02,11.31.03,16.96.01,7.48.03,14.95.04,22.43l.05,27.05.06,31.2.06,34.2.07,36.75c.02,12.81.05,25.63.07,38.44l.07,39.26.07,39.69c.02,12.96.05,25.91.07,38.87l.07,37.66c.02,11.86.04,23.72.06,35.58l.06,32.74.05,29.14c.01,8.24.03,16.48.04,24.71.01,6.58.02,13.16.04,19.75l.03,13.78v7.21c.01.3.01.59.01.89,0,.8,1.25.81,1.25,0h0Z" style="fill: #251320;"/>
  <polygon points="58.81 227.34 82.81 227.34 71.18 215.11 58.81 227.34" style="fill: #251320; stroke: #251320; stroke-miterlimit: 10; stroke-width: .25px;"/>
  <text transform="translate(90.83 177.12) rotate(-90.1)" style="fill: #251320; font-family: NirmalaText-Bold, &apos;Nirmala Text&apos;; font-size: 53px; font-weight: 700;"><tspan x="0" y="0">klein</tspan></text>
</svg>